<?xml version="1.0" encoding="UTF-8" standalone="no"?>
<!DOCTYPE svg PUBLIC "-//W3C//DTD SVG 1.1//EN" "http://www.w3.org/Graphics/SVG/1.1/DTD/svg11.dtd">
<svg xmlns="http://www.w3.org/2000/svg" version="1.1" viewBox="0.00 0.00 525.00 573.00">
<g stroke-width="2.00" fill="none" stroke-linecap="butt">
<path stroke="#e9e8e9" vector-effect="non-scaling-stroke" d="
  M 122.69 0.00
  C 117.41 10.43 115.76 18.93 117.74 30.61
  Q 119.23 39.40 123.25 53.63
  C 129.39 75.39 138.51 99.93 144.34 123.80
  Q 147.07 134.99 146.25 144.13
  C 145.24 155.53 138.20 164.92 130.27 172.65
  C 113.09 189.40 94.70 198.93 70.78 211.53
  Q 50.34 222.30 30.80 228.11
  Q 18.49 231.76 0.00 235.10"
/>
<path stroke="#f2f2f2" vector-effect="non-scaling-stroke" d="
  M 187.89 0.00
  Q 191.92 30.16 193.66 39.40
  Q 198.09 62.80 200.15 76.00
  Q 202.19 89.06 200.83 103.33"
/>
<path stroke="#777777" vector-effect="non-scaling-stroke" d="
  M 200.83 103.33
  L 173.74 137.08
  A 2.08 2.03 65.0 0 0 173.29 138.37
  L 173.60 219.18
  A 0.39 0.38 -72.9 0 1 173.00 219.50
  L 163.67 213.05
  A 2.32 2.31 50.9 0 0 161.49 212.82
  L 114.24 232.31
  A 0.76 0.76 0.0 0 0 113.77 233.00
  L 113.69 242.38"
/>
<path stroke="#f2f2f2" vector-effect="non-scaling-stroke" d="
  M 113.69 242.38
  C 104.40 252.66 92.55 257.23 79.82 259.66
  Q 40.85 267.11 0.00 268.72"
/>
<path stroke="#f2f2f2" vector-effect="non-scaling-stroke" d="
  M 339.00 0.00
  C 337.69 16.45 335.51 32.82 333.61 49.21
  Q 330.48 76.05 329.53 80.91
  Q 326.45 96.58 319.99 111.36"
/>
<path stroke="#7c7c7c" vector-effect="non-scaling-stroke" d="
  M 319.99 111.36
  L 257.57 34.12
  A 0.76 0.76 0.0 0 0 256.39 34.12
  L 200.83 103.33"
/>
<path stroke="#e9e8e9" vector-effect="non-scaling-stroke" d="
  M 400.58 0.00
  Q 403.94 14.75 399.30 29.29
  C 393.14 48.60 385.01 66.96 377.42 85.61
  Q 369.59 104.83 363.61 127.20
  Q 360.37 139.36 361.62 149.95
  C 363.14 162.72 368.41 175.57 374.92 185.64
  C 382.64 197.60 393.43 204.71 406.69 210.51
  Q 424.77 218.42 432.73 222.13
  Q 449.91 230.15 458.29 233.14
  C 480.37 241.01 502.32 246.28 525.00 249.97"
/>
<path stroke="#f2f2f2" vector-effect="non-scaling-stroke" d="
  M 525.00 281.00
  C 507.92 277.76 490.83 275.68 473.55 273.43
  Q 452.61 270.71 433.01 265.06
  Q 421.80 261.83 386.62 251.25
  C 370.27 246.32 356.82 237.98 341.21 229.80
  A 0.30 0.30 0.0 0 0 340.77 230.06
  L 340.62 240.53"
/>
<path stroke="#777777" vector-effect="non-scaling-stroke" d="
  M 340.62 240.53
  L 340.77 137.79
  A 2.86 2.84 25.4 0 0 340.12 135.98
  L 319.99 111.36"
/>
<path stroke="#7c7c7c" vector-effect="non-scaling-stroke" d="
  M 340.62 240.53
  L 340.85 248.94
  A 0.42 0.41 76.6 0 0 341.44 249.31
  L 350.59 245.03
  A 1.42 1.40 46.4 0 1 351.84 245.07
  L 400.63 271.40
  A 1.00 0.98 -75.8 0 1 401.14 272.27
  L 401.13 304.75"
/>
<path stroke="#777777" vector-effect="non-scaling-stroke" d="
  M 401.13 304.75
  L 400.98 350.10"
/>
<path stroke="#727272" vector-effect="non-scaling-stroke" d="
  M 400.98 350.10
  L 400.96 374.02"
/>
<path stroke="#5c5c5b" vector-effect="non-scaling-stroke" d="
  M 400.96 374.02
  L 401.04 424.30"
/>
<path stroke="#727272" vector-effect="non-scaling-stroke" d="
  M 401.04 424.30
  L 400.87 513.59
  A 0.92 0.90 9.0 0 0 401.52 514.47
  Q 454.76 530.88 475.23 536.92
  Q 476.79 537.38 477.35 537.96
  A 0.56 0.56 0.0 0 1 476.95 538.91
  L 375.55 539.10"
/>
<path stroke="#777777" vector-effect="non-scaling-stroke" d="
  M 375.55 539.10
  L 327.96 539.15"
/>
<path stroke="#7c7c7c" vector-effect="non-scaling-stroke" d="
  M 327.96 539.15
  L 204.73 539.17"
/>
<path stroke="#777777" vector-effect="non-scaling-stroke" d="
  M 204.73 539.17
  L 120.88 539.18"
/>
<path stroke="#727272" vector-effect="non-scaling-stroke" d="
  M 120.88 539.18
  L 35.82 539.17
  A 0.52 0.51 29.9 0 1 35.56 538.21
  Q 37.50 537.09 40.68 536.15
  Q 76.17 525.64 113.01 514.58
  A 0.84 0.83 -8.4 0 0 113.61 513.78
  L 113.42 420.14"
/>
<path stroke="#5c5c5b" vector-effect="non-scaling-stroke" d="
  M 113.42 420.14
  L 113.67 378.87"
/>
<path stroke="#727272" vector-effect="non-scaling-stroke" d="
  M 113.67 378.87
  L 113.71 342.96"
/>
<path stroke="#777777" vector-effect="non-scaling-stroke" d="
  M 113.71 342.96
  L 113.70 305.82"
/>
<path stroke="#7c7c7c" vector-effect="non-scaling-stroke" d="
  M 113.70 305.82
  L 113.69 242.38"
/>
<path stroke="#184155" vector-effect="non-scaling-stroke" d="
  M 233.84 66.19
  L 176.54 137.74
  A 0.58 0.57 -49.6 0 0 176.60 138.52
  L 215.66 174.33"
/>
<path stroke="#1b4b5f" vector-effect="non-scaling-stroke" d="
  M 215.66 174.33
  L 223.38 181.34
  A 2.94 2.91 -69.5 0 1 224.35 183.50
  L 224.57 229.38"
/>
<path stroke="#15384a" vector-effect="non-scaling-stroke" d="
  M 224.57 229.38
  L 225.02 309.56
  A 0.49 0.48 79.4 0 0 225.67 310.01
  L 241.45 304.14"
/>
<path stroke="#1b4b5f" vector-effect="non-scaling-stroke" d="
  M 241.45 304.14
  L 256.57 301.35
  A 0.34 0.33 -5.1 0 0 256.85 301.02
  L 255.86 38.50
  A 0.12 0.12 0.0 0 0 255.64 38.42
  L 233.84 66.19"
/>
<path stroke="#3083a8" vector-effect="non-scaling-stroke" d="
  M 241.45 304.14
  Q 240.89 293.35 240.93 282.75
  C 240.98 267.55 240.82 254.92 240.77 241.00
  Q 240.75 237.03 237.33 235.65
  Q 232.03 233.52 224.57 229.38"
/>
<path stroke="#338cb3" vector-effect="non-scaling-stroke" d="
  M 215.66 174.33
  Q 219.24 153.98 222.78 133.72
  Q 224.81 122.07 229.47 101.37
  Q 233.18 84.88 233.84 66.19"
/>
<path stroke="#5c5c5b" vector-effect="non-scaling-stroke" d="
  M 258.32 130.29
  L 258.54 174.06"
/>
<path stroke="#727272" vector-effect="non-scaling-stroke" d="
  M 258.54 174.06
  L 258.68 205.18
  A 0.29 0.28 -14.0 0 0 259.10 205.43
  L 269.26 200.30"
/>
<path stroke="#777777" vector-effect="non-scaling-stroke" d="
  M 269.26 200.30
  L 299.29 185.31
  A 1.88 1.88 0.0 0 0 300.33 183.63
  L 300.23 156.40
  A 0.40 0.40 0.0 0 1 300.45 156.04
  L 338.40 138.31
  A 0.26 0.26 0.0 0 0 338.49 137.91
  L 308.18 100.81"
/>
<path stroke="#727272" vector-effect="non-scaling-stroke" d="
  M 308.18 100.81
  L 296.57 86.36"
/>
<path stroke="#5c5c5b" vector-effect="non-scaling-stroke" d="
  M 296.57 86.36
  L 285.49 72.58"
/>
<path stroke="#484747" vector-effect="non-scaling-stroke" d="
  M 285.49 72.58
  L 258.92 39.68
  A 0.24 0.24 0.0 0 0 258.50 39.83
  L 258.32 130.29"
/>
<path stroke="#a4a2a2" vector-effect="non-scaling-stroke" d="
  M 285.49 72.58
  Q 274.91 97.28 268.43 111.70
  Q 264.36 120.77 258.32 130.29"
/>
<path stroke="#cecdcd" vector-effect="non-scaling-stroke" d="
  M 296.57 86.36
  Q 282.34 118.68 269.14 151.29
  Q 264.44 162.91 258.54 174.06"
/>
<path stroke="#e9e8e9" vector-effect="non-scaling-stroke" d="
  M 308.18 100.81
  Q 295.33 129.64 283.15 158.45
  Q 273.50 181.27 269.26 200.30"
/>
<path stroke="#15384a" vector-effect="non-scaling-stroke" d="
  M 302.95 247.71
  L 303.33 263.26
  A 0.49 0.48 78.5 0 0 303.99 263.70
  L 337.59 250.68
  A 0.81 0.80 -10.7 0 0 338.11 249.93
  L 338.23 232.81"
/>
<path stroke="#4f656d" vector-effect="non-scaling-stroke" d="
  M 338.23 232.81
  L 338.27 192.44"
/>
<path stroke="#235162" vector-effect="non-scaling-stroke" d="
  M 338.27 192.44
  L 338.18 186.04
  A 1.91 1.88 -72.7 0 0 337.41 184.55
  L 323.80 174.65"
/>
<path stroke="#1b4b5f" vector-effect="non-scaling-stroke" d="
  M 323.80 174.65
  L 303.48 158.93
  A 0.49 0.48 -71.3 0 0 302.70 159.32
  L 302.95 247.71"
/>
<path stroke="#3e9cc1" vector-effect="non-scaling-stroke" d="
  M 323.80 174.65
  C 311.14 192.95 305.05 215.78 303.45 237.39
  Q 303.12 241.87 304.32 247.68"
/>
<path stroke="#3083a8" vector-effect="non-scaling-stroke" d="
  M 304.32 247.68
  L 302.95 247.71"
/>
<path stroke="#72b6cf" vector-effect="non-scaling-stroke" d="
  M 338.27 192.44
  C 330.35 206.83 323.93 221.69 326.33 238.49"
/>
<path stroke="#3888ac" vector-effect="non-scaling-stroke" d="
  M 326.33 238.49
  Q 315.56 243.87 304.32 247.68"
/>
<path stroke="#649db7" vector-effect="non-scaling-stroke" d="
  M 338.23 232.81
  Q 332.89 236.16 326.33 238.49"
/>
<path stroke="#484747" vector-effect="non-scaling-stroke" d="
  M 156.97 217.02
  L 116.61 233.74
  A 0.77 0.76 -11.8 0 0 116.14 234.44
  L 116.21 313.05"
/>
<path stroke="#4d4c4d" vector-effect="non-scaling-stroke" d="
  M 116.21 313.05
  L 116.25 341.22"
/>
<path stroke="#5c5c5b" vector-effect="non-scaling-stroke" d="
  M 116.25 341.22
  L 116.28 362.82"
/>
<path stroke="#727272" vector-effect="non-scaling-stroke" d="
  M 116.28 362.82
  L 116.23 405.71"
/>
<path stroke="#4d4c4d" vector-effect="non-scaling-stroke" d="
  M 116.23 405.71
  L 116.34 512.71
  A 0.55 0.55 0.0 0 0 117.04 513.24
  L 161.85 500.24
  A 1.20 1.19 -0.9 0 0 162.68 499.39
  Q 163.14 497.63 163.13 495.75
  Q 162.82 448.95 163.00 402.11"
/>
<path stroke="#727272" vector-effect="non-scaling-stroke" d="
  M 163.00 402.11
  L 162.82 261.66"
/>
<path stroke="#5c5c5b" vector-effect="non-scaling-stroke" d="
  M 162.82 261.66
  L 162.87 249.42"
/>
<path stroke="#4d4c4d" vector-effect="non-scaling-stroke" d="
  M 162.87 249.42
  L 162.59 215.63
  A 0.60 0.60 0.0 0 0 161.76 215.08
  L 156.97 217.02"
/>
<path stroke="#a9a8a8" vector-effect="non-scaling-stroke" d="
  M 162.87 249.42
  C 155.39 263.46 147.03 281.84 142.01 292.21
  C 133.94 308.88 126.75 324.59 116.25 341.22"
/>
<path stroke="#959394" vector-effect="non-scaling-stroke" d="
  M 116.21 313.05
  Q 123.70 301.47 128.91 290.62
  Q 145.77 255.54 156.97 217.02"
/>
<path stroke="#cecdcd" vector-effect="non-scaling-stroke" d="
  M 162.82 261.66
  C 156.41 278.81 150.07 291.92 143.16 306.91
  Q 138.72 316.53 131.63 330.63
  Q 123.63 346.52 116.28 362.82"
/>
<path stroke="#bfbebf" vector-effect="non-scaling-stroke" d="
  M 163.00 402.11
  Q 160.83 402.53 159.26 402.72
  Q 137.92 405.27 116.23 405.71"
/>
<path stroke="#235162" vector-effect="non-scaling-stroke" d="
  M 173.80 297.99
  Q 173.80 323.69 173.82 349.78
  C 173.82 356.94 174.14 366.11 173.82 374.00
  Q 173.77 375.21 174.11 376.43
  A 0.20 0.20 0.0 0 0 174.49 376.44
  Q 174.54 376.31 175.38 371.10
  Q 175.69 369.13 176.77 365.89
  C 182.77 347.90 195.34 329.25 211.74 318.52
  A 2.53 2.52 -16.7 0 0 212.88 316.41
  L 212.88 299.05"
/>
<path stroke="#4f656d" vector-effect="non-scaling-stroke" d="
  M 212.88 299.05
  L 212.98 249.46
  A 1.82 1.81 -72.9 0 0 212.19 247.96
  Q 200.19 239.77 175.35 224.06
  Q 174.79 223.71 174.48 223.72
  Q 173.85 223.73 173.85 224.19
  Q 173.53 260.81 173.80 297.99"
/>
<path stroke="#72b6cf" vector-effect="non-scaling-stroke" d="
  M 212.88 299.05
  L 173.80 297.99"
/>
<path stroke="#727272" vector-effect="non-scaling-stroke" d="
  M 352.37 297.04
  L 352.33 380.75"
/>
<path stroke="#4d4c4d" vector-effect="non-scaling-stroke" d="
  M 352.33 380.75
  L 352.22 498.95
  A 0.79 0.78 8.5 0 0 352.78 499.70
  L 397.72 513.27
  A 0.54 0.54 0.0 0 0 398.42 512.75
  L 398.53 361.92"
/>
<path stroke="#5c5c5b" vector-effect="non-scaling-stroke" d="
  M 398.53 361.92
  L 398.50 322.93"
/>
<path stroke="#727272" vector-effect="non-scaling-stroke" d="
  M 398.50 322.93
  L 398.58 274.01
  A 1.08 1.08 0.0 0 0 398.03 273.07
  L 372.78 259.15"
/>
<path stroke="#5c5c5b" vector-effect="non-scaling-stroke" d="
  M 372.78 259.15
  L 352.55 248.07
  A 0.17 0.17 0.0 0 0 352.29 248.22
  L 352.37 297.04"
/>
<path stroke="#cecdcd" vector-effect="non-scaling-stroke" d="
  M 372.78 259.15
  L 352.37 297.04"
/>
<path stroke="#cecdcd" vector-effect="non-scaling-stroke" d="
  M 398.50 322.93
  C 389.86 335.74 382.13 349.00 374.29 362.30
  Q 370.13 369.35 360.63 381.08"
/>
<path stroke="#bfbebf" vector-effect="non-scaling-stroke" d="
  M 360.63 381.08
  L 352.33 380.75"
/>
<path stroke="#a9a8a8" vector-effect="non-scaling-stroke" d="
  M 398.53 361.92
  L 383.98 380.26
  A 1.07 1.06 18.1 0 1 383.16 380.67
  L 360.63 381.08"
/>
<path stroke="#0e212c" vector-effect="non-scaling-stroke" d="
  M 318.69 260.61
  L 304.97 265.81
  A 1.35 1.34 79.6 0 0 304.11 267.07
  L 304.26 306.28
  A 2.42 2.40 11.7 0 0 305.72 308.49
  C 312.85 311.58 319.16 315.90 325.85 320.20"
/>
<path stroke="#0f2b3a" vector-effect="non-scaling-stroke" d="
  M 325.85 320.20
  Q 329.78 323.36 333.71 327.05
  Q 337.83 330.91 340.19 334.19
  A 0.49 0.49 0.0 0 0 340.95 334.24
  Q 340.96 334.23 341.06 334.01
  A 0.03 0.02 -31.7 0 0 341.07 333.99
  L 341.00 252.60
  A 0.47 0.47 0.0 0 0 340.36 252.16
  L 318.69 260.61"
/>
<path stroke="#1d4c66" vector-effect="non-scaling-stroke" d="
  M 325.85 320.20
  Q 320.28 304.22 319.18 299.99
  C 316.02 287.84 317.05 273.70 318.69 260.61"
/>
<path stroke="#7c7c7c" vector-effect="non-scaling-stroke" d="
  M 313.99 359.32
  L 338.01 336.07
  A 0.87 0.87 0.0 0 0 338.06 334.87
  Q 320.69 315.09 296.65 307.61
  C 273.56 300.42 248.23 301.34 226.59 311.94
  C 203.91 323.05 187.28 342.25 179.39 366.03
  Q 174.36 381.18 174.96 398.77
  C 175.86 425.65 185.99 450.22 205.57 468.62
  C 224.57 486.47 251.65 494.65 277.02 491.55
  Q 315.49 486.85 340.27 457.25
  A 0.50 0.49 39.7 0 0 340.20 456.55
  Q 328.38 446.82 316.26 434.14
  A 0.68 0.68 0.0 0 0 315.24 434.18
  Q 311.35 438.89 304.84 444.38
  C 288.32 458.29 263.93 460.89 244.55 452.49
  C 226.93 444.86 214.40 428.00 211.05 409.15
  Q 209.05 397.89 210.64 386.34
  C 213.80 363.34 233.54 342.11 256.68 338.57
  Q 290.60 333.39 313.19 359.28
  A 0.55 0.55 0.0 0 0 313.99 359.32"
/>
<path stroke="#0c1b24" vector-effect="non-scaling-stroke" d="
  M 315.91 360.59
  Q 314.56 363.01 312.10 360.64
  Q 307.93 356.59 305.12 353.57
  A 0.57 0.56 -66.6 0 0 304.14 353.96
  L 304.46 440.80
  A 0.56 0.55 67.9 0 0 305.40 441.20
  L 314.86 432.04
  A 1.28 1.28 0.0 0 1 316.51 431.93
  Q 319.37 434.04 321.55 436.18
  Q 330.48 444.95 340.43 454.29
  A 0.46 0.46 0.0 0 0 341.20 453.96
  L 341.14 372.10"
/>
<path stroke="#0f2b3a" vector-effect="non-scaling-stroke" d="
  M 341.14 372.10
  Q 341.05 355.50 341.06 340.50
  Q 341.06 338.23 340.48 337.17
  A 0.46 0.45 52.5 0 0 339.76 337.07
  L 315.91 360.59"
/>
<path stroke="#1b465d" vector-effect="non-scaling-stroke" d="
  M 341.14 372.10
  Q 327.66 368.51 315.91 360.59"
/>
<path stroke="#0f2b3a" vector-effect="non-scaling-stroke" d="
  M 241.45 345.63
  Q 232.86 350.49 226.35 357.98
  A 2.96 2.80 -15.3 0 0 225.84 358.82
  Q 224.96 361.09 224.89 364.75
  Q 224.70 375.17 225.01 385.51"
/>
<path stroke="#0e212c" vector-effect="non-scaling-stroke" d="
  M 225.01 385.51
  Q 224.98 407.29 224.95 429.00
  Q 224.95 429.67 225.58 434.48
  A 2.06 1.95 24.2 0 0 225.95 435.38
  C 231.79 443.17 239.03 449.28 248.58 452.05"
/>
<path stroke="#0f2b3a" vector-effect="non-scaling-stroke" d="
  M 248.58 452.05
  L 256.20 454.46
  A 1.08 1.08 0.0 0 0 257.60 453.43
  L 257.51 386.32"
/>
<path stroke="#184155" vector-effect="non-scaling-stroke" d="
  M 257.51 386.32
  L 257.42 341.64
  A 1.08 1.07 -5.9 0 0 256.12 340.59
  Q 248.31 342.16 241.45 345.63"
/>
<path stroke="#276b8e" vector-effect="non-scaling-stroke" d="
  M 257.51 386.32
  L 242.48 387.65
  A 0.74 0.74 0.0 0 1 241.68 387.01
  Q 241.28 383.86 241.28 380.72
  Q 241.32 366.95 240.85 353.40
  Q 240.77 350.86 241.45 345.63"
/>
<path stroke="#1d4c66" vector-effect="non-scaling-stroke" d="
  M 248.58 452.05
  C 243.37 447.81 241.27 441.24 241.18 434.84
  Q 241.07 425.47 241.24 404.29
  Q 241.31 396.37 240.50 389.68
  A 0.86 0.85 82.5 0 0 239.53 388.93
  C 234.57 389.67 228.09 390.81 225.01 385.51"
/>
<path stroke="#0c1b24" vector-effect="non-scaling-stroke" d="
  M 214.55 412.44
  L 214.01 384.25
  A 0.01 0.01 0.0 0 0 214.00 384.24
  L 213.96 384.24
  A 12.42 1.75 88.9 0 0 212.45 396.69
  L 212.51 400.07
  A 12.42 1.75 88.9 0 0 214.50 412.45
  L 214.54 412.45
  A 0.01 0.01 0.0 0 0 214.55 412.44"
/>
<path stroke="#0e212c" vector-effect="non-scaling-stroke" d="
  M 173.67 412.68
  L 173.98 495.54
  A 0.49 0.48 81.4 0 0 174.60 496.00
  L 213.20 484.80
  A 1.30 1.29 83.8 0 0 214.14 483.62
  Q 214.30 480.34 213.00 478.24
  A 2.97 2.90 -86.9 0 0 212.36 477.51
  C 202.47 469.45 193.36 459.70 186.71 448.51
  C 181.58 439.86 178.28 429.43 175.57 419.69
  Q 174.78 416.87 174.31 412.88
  A 0.27 0.27 0.0 0 0 174.04 412.64
  L 173.72 412.64
  A 0.05 0.04 -0.0 0 0 173.67 412.68"
/>
<path stroke="#0c1b24" vector-effect="non-scaling-stroke" d="
  M 341.09 460.49
  A 0.44 0.43 -25.4 0 0 340.32 460.22
  Q 334.45 467.32 327.45 472.96
  Q 317.75 480.78 308.91 484.96
  A 0.43 0.43 0.0 0 0 308.96 485.76
  L 340.03 495.93
  A 0.91 0.91 0.0 0 0 341.22 495.06
  L 341.09 460.49"
/>
<path stroke="#f2f2f2" vector-effect="non-scaling-stroke" d="
  M 525.00 304.85
  Q 522.00 305.75 517.83 305.77
  Q 459.16 306.08 412.97 306.08
  C 409.10 306.08 406.02 307.29 402.37 307.93
  A 0.40 0.40 0.0 0 1 401.90 307.51
  Q 402.02 305.83 401.13 304.75"
/>
<path stroke="#f2f2f2" vector-effect="non-scaling-stroke" d="
  M 113.70 305.82
  Q 103.21 305.90 92.73 306.00
  C 78.32 306.14 67.31 305.67 53.92 306.01
  C 39.28 306.38 24.79 306.08 7.93 305.89
  Q 5.34 305.86 0.00 306.51"
/>
<path stroke="#e9e8e9" vector-effect="non-scaling-stroke" d="
  M 525.00 348.00
  Q 504.23 352.92 485.76 352.34
  Q 478.74 352.12 454.29 350.32
  Q 437.03 349.05 400.98 350.10"
/>
<path stroke="#e9e8e9" vector-effect="non-scaling-stroke" d="
  M 113.71 342.96
  Q 94.21 348.81 70.78 349.55
  C 54.53 350.06 24.96 352.89 0.00 352.37"
/>
<path stroke="#cecdcd" vector-effect="non-scaling-stroke" d="
  M 113.67 378.87
  Q 111.58 378.20 109.52 378.55
  Q 100.95 380.01 78.73 384.44
  Q 61.04 387.96 0.00 399.57"
/>
<path stroke="#cecdcd" vector-effect="non-scaling-stroke" d="
  M 525.00 400.91
  Q 482.05 393.22 455.29 387.91
  Q 422.81 381.46 403.93 378.00
  Q 402.09 377.66 401.54 376.77
  Q 400.91 375.74 400.96 374.02"
/>
<path stroke="#cecdcd" vector-effect="non-scaling-stroke" d="
  M 525.00 465.73
  Q 524.19 465.86 521.45 464.83
  Q 475.45 447.45 405.19 423.38
  Q 403.61 422.84 401.93 422.42
  A 0.49 0.49 0.0 0 0 401.33 422.80
  L 401.04 424.30"
/>
<path stroke="#cecdcd" vector-effect="non-scaling-stroke" d="
  M 113.42 420.14
  C 112.35 420.32 112.05 421.35 110.95 421.71
  C 102.19 424.58 92.20 427.86 84.77 430.60
  Q 42.47 446.20 0.00 461.86"
/>
<path stroke="#e9e8e9" vector-effect="non-scaling-stroke" d="
  M 120.88 539.18
  Q 109.36 550.47 102.06 562.18
  Q 99.24 566.71 98.39 573.00"
/>
<path stroke="#e9e8e9" vector-effect="non-scaling-stroke" d="
  M 380.06 573.00
  C 384.49 565.20 391.49 551.45 384.94 543.76
  Q 382.63 541.05 380.90 540.03
  Q 378.59 538.67 375.55 539.10"
/>
<path stroke="#f2f2f2" vector-effect="non-scaling-stroke" d="
  M 204.73 539.17
  Q 209.38 555.83 209.40 573.00"
/>
<path stroke="#f2f2f2" vector-effect="non-scaling-stroke" d="
  M 327.96 539.15
  Q 326.53 556.34 323.72 573.00"
/>
</g>
<path fill="#e4e3e4" d="
  M 122.69 0.00
  C 117.41 10.43 115.76 18.93 117.74 30.61
  Q 119.23 39.40 123.25 53.63
  C 129.39 75.39 138.51 99.93 144.34 123.80
  Q 147.07 134.99 146.25 144.13
  C 145.24 155.53 138.20 164.92 130.27 172.65
  C 113.09 189.40 94.70 198.93 70.78 211.53
  Q 50.34 222.30 30.80 228.11
  Q 18.49 231.76 0.00 235.10
  L 0.00 0.00
  L 122.69 0.00
  Z"
/>
<path fill="#ededed" d="
  M 187.89 0.00
  Q 191.92 30.16 193.66 39.40
  Q 198.09 62.80 200.15 76.00
  Q 202.19 89.06 200.83 103.33
  L 173.74 137.08
  A 2.08 2.03 65.0 0 0 173.29 138.37
  L 173.60 219.18
  A 0.39 0.38 -72.9 0 1 173.00 219.50
  L 163.67 213.05
  A 2.32 2.31 50.9 0 0 161.49 212.82
  L 114.24 232.31
  A 0.76 0.76 0.0 0 0 113.77 233.00
  L 113.69 242.38
  C 104.40 252.66 92.55 257.23 79.82 259.66
  Q 40.85 267.11 0.00 268.72
  L 0.00 235.10
  Q 18.49 231.76 30.80 228.11
  Q 50.34 222.30 70.78 211.53
  C 94.70 198.93 113.09 189.40 130.27 172.65
  C 138.20 164.92 145.24 155.53 146.25 144.13
  Q 147.07 134.99 144.34 123.80
  C 138.51 99.93 129.39 75.39 123.25 53.63
  Q 119.23 39.40 117.74 30.61
  C 115.76 18.93 117.41 10.43 122.69 0.00
  L 187.89 0.00
  Z"
/>
<path fill="#f7f7f7" d="
  M 339.00 0.00
  C 337.69 16.45 335.51 32.82 333.61 49.21
  Q 330.48 76.05 329.53 80.91
  Q 326.45 96.58 319.99 111.36
  L 257.57 34.12
  A 0.76 0.76 0.0 0 0 256.39 34.12
  L 200.83 103.33
  Q 202.19 89.06 200.15 76.00
  Q 198.09 62.80 193.66 39.40
  Q 191.92 30.16 187.89 0.00
  L 339.00 0.00
  Z"
/>
<path fill="#ededed" d="
  M 400.58 0.00
  Q 403.94 14.75 399.30 29.29
  C 393.14 48.60 385.01 66.96 377.42 85.61
  Q 369.59 104.83 363.61 127.20
  Q 360.37 139.36 361.62 149.95
  C 363.14 162.72 368.41 175.57 374.92 185.64
  C 382.64 197.60 393.43 204.71 406.69 210.51
  Q 424.77 218.42 432.73 222.13
  Q 449.91 230.15 458.29 233.14
  C 480.37 241.01 502.32 246.28 525.00 249.97
  L 525.00 281.00
  C 507.92 277.76 490.83 275.68 473.55 273.43
  Q 452.61 270.71 433.01 265.06
  Q 421.80 261.83 386.62 251.25
  C 370.27 246.32 356.82 237.98 341.21 229.80
  A 0.30 0.30 0.0 0 0 340.77 230.06
  L 340.62 240.53
  L 340.77 137.79
  A 2.86 2.84 25.4 0 0 340.12 135.98
  L 319.99 111.36
  Q 326.45 96.58 329.53 80.91
  Q 330.48 76.05 333.61 49.21
  C 335.51 32.82 337.69 16.45 339.00 0.00
  L 400.58 0.00
  Z"
/>
<path fill="#e4e3e4" d="
  M 525.00 0.00
  L 525.00 249.97
  C 502.32 246.28 480.37 241.01 458.29 233.14
  Q 449.91 230.15 432.73 222.13
  Q 424.77 218.42 406.69 210.51
  C 393.43 204.71 382.64 197.60 374.92 185.64
  C 368.41 175.57 363.14 162.72 361.62 149.95
  Q 360.37 139.36 363.61 127.20
  Q 369.59 104.83 377.42 85.61
  C 385.01 66.96 393.14 48.60 399.30 29.29
  Q 403.94 14.75 400.58 0.00
  L 525.00 0.00
  Z"
/>
<path fill="#000000" d="
  M 319.99 111.36
  L 340.12 135.98
  A 2.86 2.84 25.4 0 1 340.77 137.79
  L 340.62 240.53
  L 340.85 248.94
  A 0.42 0.41 76.6 0 0 341.44 249.31
  L 350.59 245.03
  A 1.42 1.40 46.4 0 1 351.84 245.07
  L 400.63 271.40
  A 1.00 0.98 -75.8 0 1 401.14 272.27
  L 401.13 304.75
  L 400.98 350.10
  L 400.96 374.02
  L 401.04 424.30
  L 400.87 513.59
  A 0.92 0.90 9.0 0 0 401.52 514.47
  Q 454.76 530.88 475.23 536.92
  Q 476.79 537.38 477.35 537.96
  A 0.56 0.56 0.0 0 1 476.95 538.91
  L 375.55 539.10
  L 327.96 539.15
  L 204.73 539.17
  L 120.88 539.18
  L 35.82 539.17
  A 0.52 0.51 29.9 0 1 35.56 538.21
  Q 37.50 537.09 40.68 536.15
  Q 76.17 525.64 113.01 514.58
  A 0.84 0.83 -8.4 0 0 113.61 513.78
  L 113.42 420.14
  L 113.67 378.87
  L 113.71 342.96
  L 113.70 305.82
  L 113.69 242.38
  L 113.77 233.00
  A 0.76 0.76 0.0 0 1 114.24 232.31
  L 161.49 212.82
  A 2.32 2.31 50.9 0 1 163.67 213.05
  L 173.00 219.50
  A 0.39 0.38 -72.9 0 0 173.60 219.18
  L 173.29 138.37
  A 2.08 2.03 65.0 0 1 173.74 137.08
  L 200.83 103.33
  L 256.39 34.12
  A 0.76 0.76 0.0 0 1 257.57 34.12
  L 319.99 111.36
  Z
  M 233.84 66.19
  L 176.54 137.74
  A 0.58 0.57 -49.6 0 0 176.60 138.52
  L 215.66 174.33
  L 223.38 181.34
  A 2.94 2.91 -69.5 0 1 224.35 183.50
  L 224.57 229.38
  L 225.02 309.56
  A 0.49 0.48 79.4 0 0 225.67 310.01
  L 241.45 304.14
  L 256.57 301.35
  A 0.34 0.33 -5.1 0 0 256.85 301.02
  L 255.86 38.50
  A 0.12 0.12 0.0 0 0 255.64 38.42
  L 233.84 66.19
  Z
  M 258.32 130.29
  L 258.54 174.06
  L 258.68 205.18
  A 0.29 0.28 -14.0 0 0 259.10 205.43
  L 269.26 200.30
  L 299.29 185.31
  A 1.88 1.88 0.0 0 0 300.33 183.63
  L 300.23 156.40
  A 0.40 0.40 0.0 0 1 300.45 156.04
  L 338.40 138.31
  A 0.26 0.26 0.0 0 0 338.49 137.91
  L 308.18 100.81
  L 296.57 86.36
  L 285.49 72.58
  L 258.92 39.68
  A 0.24 0.24 0.0 0 0 258.50 39.83
  L 258.32 130.29
  Z
  M 302.95 247.71
  L 303.33 263.26
  A 0.49 0.48 78.5 0 0 303.99 263.70
  L 337.59 250.68
  A 0.81 0.80 -10.7 0 0 338.11 249.93
  L 338.23 232.81
  L 338.27 192.44
  L 338.18 186.04
  A 1.91 1.88 -72.7 0 0 337.41 184.55
  L 323.80 174.65
  L 303.48 158.93
  A 0.49 0.48 -71.3 0 0 302.70 159.32
  L 302.95 247.71
  Z
  M 156.97 217.02
  L 116.61 233.74
  A 0.77 0.76 -11.8 0 0 116.14 234.44
  L 116.21 313.05
  L 116.25 341.22
  L 116.28 362.82
  L 116.23 405.71
  L 116.34 512.71
  A 0.55 0.55 0.0 0 0 117.04 513.24
  L 161.85 500.24
  A 1.20 1.19 -0.9 0 0 162.68 499.39
  Q 163.14 497.63 163.13 495.75
  Q 162.82 448.95 163.00 402.11
  L 162.82 261.66
  L 162.87 249.42
  L 162.59 215.63
  A 0.60 0.60 0.0 0 0 161.76 215.08
  L 156.97 217.02
  Z
  M 173.80 297.99
  Q 173.80 323.69 173.82 349.78
  C 173.82 356.94 174.14 366.11 173.82 374.00
  Q 173.77 375.21 174.11 376.43
  A 0.20 0.20 0.0 0 0 174.49 376.44
  Q 174.54 376.31 175.38 371.10
  Q 175.69 369.13 176.77 365.89
  C 182.77 347.90 195.34 329.25 211.74 318.52
  A 2.53 2.52 -16.7 0 0 212.88 316.41
  L 212.88 299.05
  L 212.98 249.46
  A 1.82 1.81 -72.9 0 0 212.19 247.96
  Q 200.19 239.77 175.35 224.06
  Q 174.79 223.71 174.48 223.72
  Q 173.85 223.73 173.85 224.19
  Q 173.53 260.81 173.80 297.99
  Z
  M 352.37 297.04
  L 352.33 380.75
  L 352.22 498.95
  A 0.79 0.78 8.5 0 0 352.78 499.70
  L 397.72 513.27
  A 0.54 0.54 0.0 0 0 398.42 512.75
  L 398.53 361.92
  L 398.50 322.93
  L 398.58 274.01
  A 1.08 1.08 0.0 0 0 398.03 273.07
  L 372.78 259.15
  L 352.55 248.07
  A 0.17 0.17 0.0 0 0 352.29 248.22
  L 352.37 297.04
  Z
  M 318.69 260.61
  L 304.97 265.81
  A 1.35 1.34 79.6 0 0 304.11 267.07
  L 304.26 306.28
  A 2.42 2.40 11.7 0 0 305.72 308.49
  C 312.85 311.58 319.16 315.90 325.85 320.20
  Q 329.78 323.36 333.71 327.05
  Q 337.83 330.91 340.19 334.19
  A 0.49 0.49 0.0 0 0 340.95 334.24
  Q 340.96 334.23 341.06 334.01
  A 0.03 0.02 -31.7 0 0 341.07 333.99
  L 341.00 252.60
  A 0.47 0.47 0.0 0 0 340.36 252.16
  L 318.69 260.61
  Z
  M 313.99 359.32
  L 338.01 336.07
  A 0.87 0.87 0.0 0 0 338.06 334.87
  Q 320.69 315.09 296.65 307.61
  C 273.56 300.42 248.23 301.34 226.59 311.94
  C 203.91 323.05 187.28 342.25 179.39 366.03
  Q 174.36 381.18 174.96 398.77
  C 175.86 425.65 185.99 450.22 205.57 468.62
  C 224.57 486.47 251.65 494.65 277.02 491.55
  Q 315.49 486.85 340.27 457.25
  A 0.50 0.49 39.7 0 0 340.20 456.55
  Q 328.38 446.82 316.26 434.14
  A 0.68 0.68 0.0 0 0 315.24 434.18
  Q 311.35 438.89 304.84 444.38
  C 288.32 458.29 263.93 460.89 244.55 452.49
  C 226.93 444.86 214.40 428.00 211.05 409.15
  Q 209.05 397.89 210.64 386.34
  C 213.80 363.34 233.54 342.11 256.68 338.57
  Q 290.60 333.39 313.19 359.28
  A 0.55 0.55 0.0 0 0 313.99 359.32
  Z
  M 315.91 360.59
  Q 314.56 363.01 312.10 360.64
  Q 307.93 356.59 305.12 353.57
  A 0.57 0.56 -66.6 0 0 304.14 353.96
  L 304.46 440.80
  A 0.56 0.55 67.9 0 0 305.40 441.20
  L 314.86 432.04
  A 1.28 1.28 0.0 0 1 316.51 431.93
  Q 319.37 434.04 321.55 436.18
  Q 330.48 444.95 340.43 454.29
  A 0.46 0.46 0.0 0 0 341.20 453.96
  L 341.14 372.10
  Q 341.05 355.50 341.06 340.50
  Q 341.06 338.23 340.48 337.17
  A 0.46 0.45 52.5 0 0 339.76 337.07
  L 315.91 360.59
  Z
  M 241.45 345.63
  Q 232.86 350.49 226.35 357.98
  A 2.96 2.80 -15.3 0 0 225.84 358.82
  Q 224.96 361.09 224.89 364.75
  Q 224.70 375.17 225.01 385.51
  Q 224.98 407.29 224.95 429.00
  Q 224.95 429.67 225.58 434.48
  A 2.06 1.95 24.2 0 0 225.95 435.38
  C 231.79 443.17 239.03 449.28 248.58 452.05
  L 256.20 454.46
  A 1.08 1.08 0.0 0 0 257.60 453.43
  L 257.51 386.32
  L 257.42 341.64
  A 1.08 1.07 -5.9 0 0 256.12 340.59
  Q 248.31 342.16 241.45 345.63
  Z
  M 214.55 412.44
  L 214.01 384.25
  A 0.01 0.01 0.0 0 0 214.00 384.24
  L 213.96 384.24
  A 12.42 1.75 88.9 0 0 212.45 396.69
  L 212.51 400.07
  A 12.42 1.75 88.9 0 0 214.50 412.45
  L 214.54 412.45
  A 0.01 0.01 0.0 0 0 214.55 412.44
  Z
  M 173.67 412.68
  L 173.98 495.54
  A 0.49 0.48 81.4 0 0 174.60 496.00
  L 213.20 484.80
  A 1.30 1.29 83.8 0 0 214.14 483.62
  Q 214.30 480.34 213.00 478.24
  A 2.97 2.90 -86.9 0 0 212.36 477.51
  C 202.47 469.45 193.36 459.70 186.71 448.51
  C 181.58 439.86 178.28 429.43 175.57 419.69
  Q 174.78 416.87 174.31 412.88
  A 0.27 0.27 0.0 0 0 174.04 412.64
  L 173.72 412.64
  A 0.05 0.04 -0.0 0 0 173.67 412.68
  Z
  M 341.09 460.49
  A 0.44 0.43 -25.4 0 0 340.32 460.22
  Q 334.45 467.32 327.45 472.96
  Q 317.75 480.78 308.91 484.96
  A 0.43 0.43 0.0 0 0 308.96 485.76
  L 340.03 495.93
  A 0.91 0.91 0.0 0 0 341.22 495.06
  L 341.09 460.49
  Z"
/>
<path fill="#3696bd" d="
  M 241.45 304.14
  Q 240.89 293.35 240.93 282.75
  C 240.98 267.55 240.82 254.92 240.77 241.00
  Q 240.75 237.03 237.33 235.65
  Q 232.03 233.52 224.57 229.38
  L 224.35 183.50
  A 2.94 2.91 -69.5 0 0 223.38 181.34
  L 215.66 174.33
  Q 219.24 153.98 222.78 133.72
  Q 224.81 122.07 229.47 101.37
  Q 233.18 84.88 233.84 66.19
  L 255.64 38.42
  A 0.12 0.12 0.0 0 1 255.86 38.50
  L 256.85 301.02
  A 0.34 0.33 -5.1 0 1 256.57 301.35
  L 241.45 304.14
  Z"
/>
<path fill="#8f8d8e" d="
  M 285.49 72.58
  Q 274.91 97.28 268.43 111.70
  Q 264.36 120.77 258.32 130.29
  L 258.50 39.83
  A 0.24 0.24 0.0 0 1 258.92 39.68
  L 285.49 72.58
  Z"
/>
<path fill="#2f81a9" d="
  M 233.84 66.19
  Q 233.18 84.88 229.47 101.37
  Q 224.81 122.07 222.78 133.72
  Q 219.24 153.98 215.66 174.33
  L 176.60 138.52
  A 0.58 0.57 -49.6 0 1 176.54 137.74
  L 233.84 66.19
  Z"
/>
<path fill="#b8b7b6" d="
  M 285.49 72.58
  L 296.57 86.36
  Q 282.34 118.68 269.14 151.29
  Q 264.44 162.91 258.54 174.06
  L 258.32 130.29
  Q 264.36 120.77 268.43 111.70
  Q 274.91 97.28 285.49 72.58
  Z"
/>
<path fill="#e4e3e4" d="
  M 296.57 86.36
  L 308.18 100.81
  Q 295.33 129.64 283.15 158.45
  Q 273.50 181.27 269.26 200.30
  L 259.10 205.43
  A 0.29 0.28 -14.0 0 1 258.68 205.18
  L 258.54 174.06
  Q 264.44 162.91 269.14 151.29
  Q 282.34 118.68 296.57 86.36
  Z"
/>
<path fill="#ededed" d="
  M 308.18 100.81
  L 338.49 137.91
  A 0.26 0.26 0.0 0 1 338.40 138.31
  L 300.45 156.04
  A 0.40 0.40 0.0 0 0 300.23 156.40
  L 300.33 183.63
  A 1.88 1.88 0.0 0 1 299.29 185.31
  L 269.26 200.30
  Q 273.50 181.27 283.15 158.45
  Q 295.33 129.64 308.18 100.81
  Z"
/>
<path fill="#3696bd" d="
  M 323.80 174.65
  C 311.14 192.95 305.05 215.78 303.45 237.39
  Q 303.12 241.87 304.32 247.68
  L 302.95 247.71
  L 302.70 159.32
  A 0.49 0.48 -71.3 0 1 303.48 158.93
  L 323.80 174.65
  Z"
/>
<path fill="#45a1c4" d="
  M 323.80 174.65
  L 337.41 184.55
  A 1.91 1.88 -72.7 0 1 338.18 186.04
  L 338.27 192.44
  C 330.35 206.83 323.93 221.69 326.33 238.49
  Q 315.56 243.87 304.32 247.68
  Q 303.12 241.87 303.45 237.39
  C 305.05 215.78 311.14 192.95 323.80 174.65
  Z"
/>
<path fill="#9ecada" d="
  M 338.27 192.44
  L 338.23 232.81
  Q 332.89 236.16 326.33 238.49
  C 323.93 221.69 330.35 206.83 338.27 192.44
  Z"
/>
<path fill="#9a9899" d="
  M 162.87 249.42
  C 155.39 263.46 147.03 281.84 142.01 292.21
  C 133.94 308.88 126.75 324.59 116.25 341.22
  L 116.21 313.05
  Q 123.70 301.47 128.91 290.62
  Q 145.77 255.54 156.97 217.02
  L 161.76 215.08
  A 0.60 0.60 0.0 0 1 162.59 215.63
  L 162.87 249.42
  Z"
/>
<path fill="#8f8d8e" d="
  M 156.97 217.02
  Q 145.77 255.54 128.91 290.62
  Q 123.70 301.47 116.21 313.05
  L 116.14 234.44
  A 0.77 0.76 -11.8 0 1 116.61 233.74
  L 156.97 217.02
  Z"
/>
<path fill="#9ecada" d="
  M 212.88 299.05
  L 173.80 297.99
  Q 173.53 260.81 173.85 224.19
  Q 173.85 223.73 174.48 223.72
  Q 174.79 223.71 175.35 224.06
  Q 200.19 239.77 212.19 247.96
  A 1.82 1.81 -72.9 0 1 212.98 249.46
  L 212.88 299.05
  Z"
/>
<path fill="#2a6f93" d="
  M 241.45 304.14
  L 225.67 310.01
  A 0.49 0.48 79.4 0 1 225.02 309.56
  L 224.57 229.38
  Q 232.03 233.52 237.33 235.65
  Q 240.75 237.03 240.77 241.00
  C 240.82 254.92 240.98 267.55 240.93 282.75
  Q 240.89 293.35 241.45 304.14
  Z"
/>
<path fill="#f7f7f7" d="
  M 525.00 281.00
  L 525.00 304.85
  Q 522.00 305.75 517.83 305.77
  Q 459.16 306.08 412.97 306.08
  C 409.10 306.08 406.02 307.29 402.37 307.93
  A 0.40 0.40 0.0 0 1 401.90 307.51
  Q 402.02 305.83 401.13 304.75
  L 401.14 272.27
  A 1.00 0.98 -75.8 0 0 400.63 271.40
  L 351.84 245.07
  A 1.42 1.40 46.4 0 0 350.59 245.03
  L 341.44 249.31
  A 0.42 0.41 76.6 0 1 340.85 248.94
  L 340.62 240.53
  L 340.77 230.06
  A 0.30 0.30 0.0 0 1 341.21 229.80
  C 356.82 237.98 370.27 246.32 386.62 251.25
  Q 421.80 261.83 433.01 265.06
  Q 452.61 270.71 473.55 273.43
  C 490.83 275.68 507.92 277.76 525.00 281.00
  Z"
/>
<path fill="#2a6f93" d="
  M 338.23 232.81
  L 338.11 249.93
  A 0.81 0.80 -10.7 0 1 337.59 250.68
  L 303.99 263.70
  A 0.49 0.48 78.5 0 1 303.33 263.26
  L 302.95 247.71
  L 304.32 247.68
  Q 315.56 243.87 326.33 238.49
  Q 332.89 236.16 338.23 232.81
  Z"
/>
<path fill="#f7f7f7" d="
  M 113.69 242.38
  L 113.70 305.82
  Q 103.21 305.90 92.73 306.00
  C 78.32 306.14 67.31 305.67 53.92 306.01
  C 39.28 306.38 24.79 306.08 7.93 305.89
  Q 5.34 305.86 0.00 306.51
  L 0.00 268.72
  Q 40.85 267.11 79.82 259.66
  C 92.55 257.23 104.40 252.66 113.69 242.38
  Z"
/>
<path fill="#b8b7b6" d="
  M 372.78 259.15
  L 352.37 297.04
  L 352.29 248.22
  A 0.17 0.17 0.0 0 1 352.55 248.07
  L 372.78 259.15
  Z"
/>
<path fill="#b8b7b6" d="
  M 162.87 249.42
  L 162.82 261.66
  C 156.41 278.81 150.07 291.92 143.16 306.91
  Q 138.72 316.53 131.63 330.63
  Q 123.63 346.52 116.28 362.82
  L 116.25 341.22
  C 126.75 324.59 133.94 308.88 142.01 292.21
  C 147.03 281.84 155.39 263.46 162.87 249.42
  Z"
/>
<path fill="#1e5573" d="
  M 325.85 320.20
  Q 320.28 304.22 319.18 299.99
  C 316.02 287.84 317.05 273.70 318.69 260.61
  L 340.36 252.16
  A 0.47 0.47 0.0 0 1 341.00 252.60
  L 341.07 333.99
  A 0.03 0.02 -31.7 0 1 341.06 334.01
  Q 340.96 334.23 340.95 334.24
  A 0.49 0.49 0.0 0 1 340.19 334.19
  Q 337.83 330.91 333.71 327.05
  Q 329.78 323.36 325.85 320.20
  Z"
/>
<path fill="#e4e3e4" d="
  M 372.78 259.15
  L 398.03 273.07
  A 1.08 1.08 0.0 0 1 398.58 274.01
  L 398.50 322.93
  C 389.86 335.74 382.13 349.00 374.29 362.30
  Q 370.13 369.35 360.63 381.08
  L 352.33 380.75
  L 352.37 297.04
  L 372.78 259.15
  Z"
/>
<path fill="#1c4258" d="
  M 318.69 260.61
  C 317.05 273.70 316.02 287.84 319.18 299.99
  Q 320.28 304.22 325.85 320.20
  C 319.16 315.90 312.85 311.58 305.72 308.49
  A 2.42 2.40 11.7 0 1 304.26 306.28
  L 304.11 267.07
  A 1.35 1.34 79.6 0 1 304.97 265.81
  L 318.69 260.61
  Z"
/>
<path fill="#e4e3e4" d="
  M 162.82 261.66
  L 163.00 402.11
  Q 160.83 402.53 159.26 402.72
  Q 137.92 405.27 116.23 405.71
  L 116.28 362.82
  Q 123.63 346.52 131.63 330.63
  Q 138.72 316.53 143.16 306.91
  C 150.07 291.92 156.41 278.81 162.82 261.66
  Z"
/>
<path fill="#45a1c4" d="
  M 212.88 299.05
  L 212.88 316.41
  A 2.53 2.52 -16.7 0 1 211.74 318.52
  C 195.34 329.25 182.77 347.90 176.77 365.89
  Q 175.69 369.13 175.38 371.10
  Q 174.54 376.31 174.49 376.44
  A 0.20 0.20 0.0 0 1 174.11 376.43
  Q 173.77 375.21 173.82 374.00
  C 174.14 366.11 173.82 356.94 173.82 349.78
  Q 173.80 323.69 173.80 297.99
  L 212.88 299.05
  Z"
/>
<path fill="#f7f7f7" d="
  M 313.99 359.32
  A 0.55 0.55 0.0 0 1 313.19 359.28
  Q 290.60 333.39 256.68 338.57
  C 233.54 342.11 213.80 363.34 210.64 386.34
  Q 209.05 397.89 211.05 409.15
  C 214.40 428.00 226.93 444.86 244.55 452.49
  C 263.93 460.89 288.32 458.29 304.84 444.38
  Q 311.35 438.89 315.24 434.18
  A 0.68 0.68 0.0 0 1 316.26 434.14
  Q 328.38 446.82 340.20 456.55
  A 0.50 0.49 39.7 0 1 340.27 457.25
  Q 315.49 486.85 277.02 491.55
  C 251.65 494.65 224.57 486.47 205.57 468.62
  C 185.99 450.22 175.86 425.65 174.96 398.77
  Q 174.36 381.18 179.39 366.03
  C 187.28 342.25 203.91 323.05 226.59 311.94
  C 248.23 301.34 273.56 300.42 296.65 307.61
  Q 320.69 315.09 338.06 334.87
  A 0.87 0.87 0.0 0 1 338.01 336.07
  L 313.99 359.32
  Z"
/>
<path fill="#ededed" d="
  M 525.00 304.85
  L 525.00 348.00
  Q 504.23 352.92 485.76 352.34
  Q 478.74 352.12 454.29 350.32
  Q 437.03 349.05 400.98 350.10
  L 401.13 304.75
  Q 402.02 305.83 401.90 307.51
  A 0.40 0.40 0.0 0 0 402.37 307.93
  C 406.02 307.29 409.10 306.08 412.97 306.08
  Q 459.16 306.08 517.83 305.77
  Q 522.00 305.75 525.00 304.85
  Z"
/>
<path fill="#ededed" d="
  M 113.70 305.82
  L 113.71 342.96
  Q 94.21 348.81 70.78 349.55
  C 54.53 350.06 24.96 352.89 0.00 352.37
  L 0.00 306.51
  Q 5.34 305.86 7.93 305.89
  C 24.79 306.08 39.28 306.38 53.92 306.01
  C 67.31 305.67 78.32 306.14 92.73 306.00
  Q 103.21 305.90 113.70 305.82
  Z"
/>
<path fill="#b8b7b6" d="
  M 398.50 322.93
  L 398.53 361.92
  L 383.98 380.26
  A 1.07 1.06 18.1 0 1 383.16 380.67
  L 360.63 381.08
  Q 370.13 369.35 374.29 362.30
  C 382.13 349.00 389.86 335.74 398.50 322.93
  Z"
/>
<path fill="#1e5573" d="
  M 341.14 372.10
  Q 327.66 368.51 315.91 360.59
  L 339.76 337.07
  A 0.46 0.45 52.5 0 1 340.48 337.17
  Q 341.06 338.23 341.06 340.50
  Q 341.05 355.50 341.14 372.10
  Z"
/>
<path fill="#2f81a9" d="
  M 257.51 386.32
  L 242.48 387.65
  A 0.74 0.74 0.0 0 1 241.68 387.01
  Q 241.28 383.86 241.28 380.72
  Q 241.32 366.95 240.85 353.40
  Q 240.77 350.86 241.45 345.63
  Q 248.31 342.16 256.12 340.59
  A 1.08 1.07 -5.9 0 1 257.42 341.64
  L 257.51 386.32
  Z"
/>
<path fill="#e4e3e4" d="
  M 113.71 342.96
  L 113.67 378.87
  Q 111.58 378.20 109.52 378.55
  Q 100.95 380.01 78.73 384.44
  Q 61.04 387.96 0.00 399.57
  L 0.00 352.37
  C 24.96 352.89 54.53 350.06 70.78 349.55
  Q 94.21 348.81 113.71 342.96
  Z"
/>
<path fill="#1e5573" d="
  M 241.45 345.63
  Q 240.77 350.86 240.85 353.40
  Q 241.32 366.95 241.28 380.72
  Q 241.28 383.86 241.68 387.01
  A 0.74 0.74 0.0 0 0 242.48 387.65
  L 257.51 386.32
  L 257.60 453.43
  A 1.08 1.08 0.0 0 1 256.20 454.46
  L 248.58 452.05
  C 243.37 447.81 241.27 441.24 241.18 434.84
  Q 241.07 425.47 241.24 404.29
  Q 241.31 396.37 240.50 389.68
  A 0.86 0.85 82.5 0 0 239.53 388.93
  C 234.57 389.67 228.09 390.81 225.01 385.51
  Q 224.70 375.17 224.89 364.75
  Q 224.96 361.09 225.84 358.82
  A 2.96 2.80 -15.3 0 1 226.35 357.98
  Q 232.86 350.49 241.45 345.63
  Z"
/>
<path fill="#e4e3e4" d="
  M 525.00 348.00
  L 525.00 400.91
  Q 482.05 393.22 455.29 387.91
  Q 422.81 381.46 403.93 378.00
  Q 402.09 377.66 401.54 376.77
  Q 400.91 375.74 400.96 374.02
  L 400.98 350.10
  Q 437.03 349.05 454.29 350.32
  Q 478.74 352.12 485.76 352.34
  Q 504.23 352.92 525.00 348.00
  Z"
/>
<path fill="#173647" d="
  M 315.91 360.59
  Q 327.66 368.51 341.14 372.10
  L 341.20 453.96
  A 0.46 0.46 0.0 0 1 340.43 454.29
  Q 330.48 444.95 321.55 436.18
  Q 319.37 434.04 316.51 431.93
  A 1.28 1.28 0.0 0 0 314.86 432.04
  L 305.40 441.20
  A 0.56 0.55 67.9 0 1 304.46 440.80
  L 304.14 353.96
  A 0.57 0.56 -66.6 0 1 305.12 353.57
  Q 307.93 356.59 312.10 360.64
  Q 314.56 363.01 315.91 360.59
  Z"
/>
<path fill="#9a9899" d="
  M 398.53 361.92
  L 398.42 512.75
  A 0.54 0.54 0.0 0 1 397.72 513.27
  L 352.78 499.70
  A 0.79 0.78 8.5 0 1 352.22 498.95
  L 352.33 380.75
  L 360.63 381.08
  L 383.16 380.67
  A 1.07 1.06 18.1 0 0 383.98 380.26
  L 398.53 361.92
  Z"
/>
<path fill="#b8b7b6" d="
  M 400.96 374.02
  Q 400.91 375.74 401.54 376.77
  Q 402.09 377.66 403.93 378.00
  Q 422.81 381.46 455.29 387.91
  Q 482.05 393.22 525.00 400.91
  L 525.00 465.73
  Q 524.19 465.86 521.45 464.83
  Q 475.45 447.45 405.19 423.38
  Q 403.61 422.84 401.93 422.42
  A 0.49 0.49 0.0 0 0 401.33 422.80
  L 401.04 424.30
  L 400.96 374.02
  Z"
/>
<path fill="#b8b7b6" d="
  M 113.67 378.87
  L 113.42 420.14
  C 112.35 420.32 112.05 421.35 110.95 421.71
  C 102.19 424.58 92.20 427.86 84.77 430.60
  Q 42.47 446.20 0.00 461.86
  L 0.00 399.57
  Q 61.04 387.96 78.73 384.44
  Q 100.95 380.01 109.52 378.55
  Q 111.58 378.20 113.67 378.87
  Z"
/>
<path fill="#173647" d="
  M 214.55 412.44
  A 0.01 0.01 0.0 0 1 214.54 412.45
  L 214.50 412.45
  A 12.42 1.75 88.9 0 1 212.51 400.07
  L 212.45 396.69
  A 12.42 1.75 88.9 0 1 213.96 384.24
  L 214.00 384.24
  A 0.01 0.01 0.0 0 1 214.01 384.25
  L 214.55 412.44
  Z"
/>
<path fill="#1c4258" d="
  M 248.58 452.05
  C 239.03 449.28 231.79 443.17 225.95 435.38
  A 2.06 1.95 24.2 0 1 225.58 434.48
  Q 224.95 429.67 224.95 429.00
  Q 224.98 407.29 225.01 385.51
  C 228.09 390.81 234.57 389.67 239.53 388.93
  A 0.86 0.85 82.5 0 1 240.50 389.68
  Q 241.31 396.37 241.24 404.29
  Q 241.07 425.47 241.18 434.84
  C 241.27 441.24 243.37 447.81 248.58 452.05
  Z"
/>
<path fill="#9a9899" d="
  M 163.00 402.11
  Q 162.82 448.95 163.13 495.75
  Q 163.14 497.63 162.68 499.39
  A 1.20 1.19 -0.9 0 1 161.85 500.24
  L 117.04 513.24
  A 0.55 0.55 0.0 0 1 116.34 512.71
  L 116.23 405.71
  Q 137.92 405.27 159.26 402.72
  Q 160.83 402.53 163.00 402.11
  Z"
/>
<path fill="#1c4258" d="
  M 173.67 412.68
  A 0.05 0.04 0.0 0 1 173.72 412.64
  L 174.04 412.64
  A 0.27 0.27 0.0 0 1 174.31 412.88
  Q 174.78 416.87 175.57 419.69
  C 178.28 429.43 181.58 439.86 186.71 448.51
  C 193.36 459.70 202.47 469.45 212.36 477.51
  A 2.97 2.90 -86.9 0 1 213.00 478.24
  Q 214.30 480.34 214.14 483.62
  A 1.30 1.29 83.8 0 1 213.20 484.80
  L 174.60 496.00
  A 0.49 0.48 81.4 0 1 173.98 495.54
  L 173.67 412.68
  Z"
/>
<path fill="#e4e3e4" d="
  M 113.42 420.14
  L 113.61 513.78
  A 0.84 0.83 -8.4 0 1 113.01 514.58
  Q 76.17 525.64 40.68 536.15
  Q 37.50 537.09 35.56 538.21
  A 0.52 0.51 29.9 0 0 35.82 539.17
  L 120.88 539.18
  Q 109.36 550.47 102.06 562.18
  Q 99.24 566.71 98.39 573.00
  L 0.00 573.00
  L 0.00 461.86
  Q 42.47 446.20 84.77 430.60
  C 92.20 427.86 102.19 424.58 110.95 421.71
  C 112.05 421.35 112.35 420.32 113.42 420.14
  Z"
/>
<path fill="#e4e3e4" d="
  M 525.00 465.73
  L 525.00 573.00
  L 380.06 573.00
  C 384.49 565.20 391.49 551.45 384.94 543.76
  Q 382.63 541.05 380.90 540.03
  Q 378.59 538.67 375.55 539.10
  L 476.95 538.91
  A 0.56 0.56 0.0 0 0 477.35 537.96
  Q 476.79 537.38 475.23 536.92
  Q 454.76 530.88 401.52 514.47
  A 0.92 0.90 9.0 0 1 400.87 513.59
  L 401.04 424.30
  L 401.33 422.80
  A 0.49 0.49 0.0 0 1 401.93 422.42
  Q 403.61 422.84 405.19 423.38
  Q 475.45 447.45 521.45 464.83
  Q 524.19 465.86 525.00 465.73
  Z"
/>
<path fill="#173647" d="
  M 341.09 460.49
  L 341.22 495.06
  A 0.91 0.91 0.0 0 1 340.03 495.93
  L 308.96 485.76
  A 0.43 0.43 0.0 0 1 308.91 484.96
  Q 317.75 480.78 327.45 472.96
  Q 334.45 467.32 340.32 460.22
  A 0.44 0.43 -25.4 0 1 341.09 460.49
  Z"
/>
<path fill="#ededed" d="
  M 204.73 539.17
  Q 209.38 555.83 209.40 573.00
  L 98.39 573.00
  Q 99.24 566.71 102.06 562.18
  Q 109.36 550.47 120.88 539.18
  L 204.73 539.17
  Z"
/>
<path fill="#f7f7f7" d="
  M 327.96 539.15
  Q 326.53 556.34 323.72 573.00
  L 209.40 573.00
  Q 209.38 555.83 204.73 539.17
  L 327.96 539.15
  Z"
/>
<path fill="#ededed" d="
  M 375.55 539.10
  Q 378.59 538.67 380.90 540.03
  Q 382.63 541.05 384.94 543.76
  C 391.49 551.45 384.49 565.20 380.06 573.00
  L 323.72 573.00
  Q 326.53 556.34 327.96 539.15
  L 375.55 539.10
  Z"
/>
</svg>
